<?xml version="1.0" encoding="utf-8"?>
<!-- Generator: Adobe Illustrator 25.4.1, SVG Export Plug-In . SVG Version: 6.00 Build 0)  -->
<svg version="1.1" id="Layer_1" xmlns="http://www.w3.org/2000/svg" xmlns:xlink="http://www.w3.org/1999/xlink" x="0px" y="0px"
	 viewBox="0 0 318.5 163.1" style="enable-background:new 0 0 318.5 163.1;" xml:space="preserve">
<style type="text/css">
	.st0{fill:#2E2E2E;}
	.st1{fill:#231F20;}
</style>
<g>
	<path class="st0" d="M0,72.5h11.3v41.6H0V72.5z"/>
	<path class="st0" d="M29.2,70.7c2.3,2.2,2.4,5.9,0.1,8.2c-1.1,1.2-2.7,1.8-4.3,1.8c-1.6,0.1-3.1-0.5-4.2-1.6c-2.2-2.4-2.2-6,0-8.4
		c1.1-1.1,2.6-1.7,4.2-1.6C26.6,69,28.1,69.6,29.2,70.7z M19.4,83.6h11.3v30.5H19.4V83.6z"/>
</g>
<g>
	<path class="st0" d="M50.3,90.7c-0.6,0-1.2,0.1-1.7,0.4c-0.4,0.2-0.6,0.6-0.6,1.1c0,0.6,0.4,1,1.2,1.4c1.2,0.5,2.4,0.9,3.7,1.2
		c1.9,0.5,3.8,1.2,5.6,1.9c1.5,0.6,2.8,1.6,3.9,2.9c1.2,1.4,1.8,3.2,1.7,5c0.1,2.9-1.3,5.7-3.7,7.4c-2.4,1.8-5.7,2.7-9.7,2.7
		c-2.6,0-5.2-0.4-7.7-1.1c-2.4-0.7-4.6-1.8-6.6-3.2l3.5-7.1c1.8,1.2,3.7,2.1,5.7,2.8c1.7,0.6,3.5,1,5.3,1c0.6,0,1.3-0.1,1.8-0.4
		c0.4-0.2,0.7-0.6,0.7-1c0-0.6-0.4-1-1.1-1.4c-1.2-0.5-2.4-0.9-3.6-1.2c-1.9-0.5-3.7-1.1-5.4-1.8c-1.5-0.6-2.8-1.6-3.8-2.8
		c-1.1-1.4-1.7-3.1-1.6-4.9c-0.1-2.9,1.2-5.7,3.6-7.4c2.7-1.9,6.1-2.9,9.4-2.7c4.7,0,9.3,1.3,13.4,3.7L60.4,94
		C56.2,91.8,52.8,90.7,50.3,90.7z"/>
</g>
<g>
	<path class="st0" d="M93,112.6c-1.2,0.7-2.6,1.1-3.9,1.4c-1.5,0.4-3.1,0.5-4.7,0.5c-2.8,0.1-5.6-0.8-7.8-2.7
		c-2-1.9-3.1-4.6-2.9-7.4V92.4h-4.2v-7.2h4.2v-8.5H85v8.5h7.5v7.2H85v10.4c-0.1,0.8,0.2,1.6,0.7,2.2c0.5,0.5,1.2,0.8,1.9,0.7
		c1.2-0.1,2.4-0.4,3.5-0.9L93,112.6z"/>
</g>
<rect x="1.4" y="157.6" class="st1" width="20.6" height="5.5"/>
<g>
	<g>
		<path class="st0" d="M6.2,45.8c-2.5-0.6-4.6-1.3-6.2-2.2l3.5-8.3c1.4,0.9,3.1,1.5,5,2c1.9,0.5,3.8,0.7,5.7,0.7
			c1.5,0,2.5-0.1,3.1-0.4c0.6-0.2,0.9-0.6,0.9-1.1c0-0.5-0.4-0.8-1.1-1c-0.7-0.2-1.9-0.4-3.6-0.6c-2.5-0.3-4.6-0.7-6.4-1.1
			c-1.8-0.5-3.3-1.4-4.6-2.7c-1.3-1.3-2-3.3-2-5.8c0-2,0.6-3.8,1.8-5.3c1.2-1.6,3-2.8,5.3-3.8c2.4-0.9,5.2-1.4,8.5-1.4
			c2.3,0,4.6,0.2,6.8,0.6c2.2,0.4,4.1,1.1,5.7,1.9l-3.5,8.3c-2.7-1.5-5.6-2.2-8.8-2.2c-2.8,0-4.1,0.5-4.1,1.5c0,0.5,0.4,0.8,1.1,1
			c0.7,0.2,1.9,0.4,3.5,0.6c2.5,0.3,4.6,0.7,6.4,1.2c1.7,0.5,3.3,1.4,4.6,2.7c1.3,1.3,2,3.3,2,5.8c0,1.9-0.6,3.6-1.8,5.2
			c-1.2,1.6-3,2.8-5.4,3.8c-2.4,0.9-5.3,1.4-8.7,1.4C11.3,46.6,8.7,46.4,6.2,45.8z"/>
		<path class="st0" d="M67.1,15.5v30.6H55v-2.9c-1.1,1.2-2.4,2-3.9,2.6c-1.5,0.6-3.1,0.9-4.8,0.9c-3.9,0-7-1.2-9.4-3.6
			c-2.4-2.4-3.5-5.9-3.5-10.7V15.5h12.7v14.7c0,2.1,0.3,3.6,1,4.5s1.7,1.3,3,1.3c1.2,0,2.3-0.5,3.1-1.5c0.8-1,1.2-2.5,1.2-4.7V15.5
			H67.1z"/>
		<path class="st0" d="M100.5,16.8c2.3,1.3,4,3.1,5.4,5.5c1.3,2.4,2,5.2,2,8.4c0,3.2-0.7,6-2,8.4c-1.3,2.4-3.1,4.3-5.4,5.6
			c-2.3,1.3-4.7,1.9-7.4,1.9c-3.8,0-6.6-1-8.4-3.1v2.5h-12V4.5h12.7v13c1.8-1.8,4.4-2.6,7.8-2.6C95.8,14.9,98.3,15.5,100.5,16.8z
			 M93.7,35.2c0.9-1.1,1.4-2.5,1.4-4.5c0-1.9-0.5-3.4-1.4-4.4c-0.9-1-2.1-1.6-3.6-1.6s-2.7,0.5-3.6,1.6c-0.9,1-1.4,2.5-1.4,4.4
			c0,1.9,0.5,3.4,1.4,4.5c0.9,1.1,2.1,1.6,3.6,1.6S92.7,36.3,93.7,35.2z"/>
		<path class="st0" d="M116.1,45.8c-2.5-0.6-4.6-1.3-6.2-2.2l3.5-8.3c1.4,0.9,3.1,1.5,5,2c1.9,0.5,3.8,0.7,5.7,0.7
			c1.5,0,2.5-0.1,3.1-0.4c0.6-0.2,0.9-0.6,0.9-1.1c0-0.5-0.4-0.8-1.1-1c-0.7-0.2-1.9-0.4-3.6-0.6c-2.5-0.3-4.6-0.7-6.4-1.1
			c-1.8-0.5-3.3-1.4-4.6-2.7c-1.3-1.3-2-3.3-2-5.8c0-2,0.6-3.8,1.8-5.3c1.2-1.6,3-2.8,5.3-3.8c2.4-0.9,5.2-1.4,8.5-1.4
			c2.3,0,4.6,0.2,6.8,0.6c2.2,0.4,4.1,1.1,5.7,1.9l-3.5,8.3c-2.7-1.5-5.6-2.2-8.8-2.2c-2.8,0-4.1,0.5-4.1,1.5c0,0.5,0.4,0.8,1.1,1
			c0.7,0.2,1.9,0.4,3.5,0.6c2.5,0.3,4.6,0.7,6.4,1.2c1.7,0.5,3.3,1.4,4.6,2.7c1.3,1.3,2,3.3,2,5.8c0,1.9-0.6,3.6-1.8,5.2
			c-1.2,1.6-3,2.8-5.4,3.8c-2.4,0.9-5.3,1.4-8.7,1.4C121.2,46.6,118.7,46.4,116.1,45.8z"/>
		<path class="st0" d="M144.3,11.2c-1.4-1.2-2.1-2.8-2.1-4.6c0-1.9,0.7-3.4,2.1-4.6c1.4-1.2,3.2-1.8,5.5-1.8c2.3,0,4.2,0.6,5.5,1.7
			c1.4,1.2,2.1,2.7,2.1,4.5c0,1.9-0.7,3.5-2.1,4.8c-1.4,1.3-3.2,1.9-5.5,1.9C147.6,13,145.7,12.4,144.3,11.2z M143.5,15.5h12.7v30.6
			h-12.7V15.5z"/>
		<path class="st0" d="M195.6,4.5v41.6h-12v-2.5c-1.8,2.1-4.6,3.1-8.4,3.1c-2.7,0-5.2-0.6-7.4-1.9c-2.3-1.3-4.1-3.1-5.4-5.6
			c-1.3-2.4-2-5.2-2-8.4c0-3.2,0.7-6,2-8.4c1.3-2.4,3.1-4.3,5.4-5.5c2.3-1.3,4.7-1.9,7.4-1.9c3.4,0,6,0.9,7.8,2.6v-13H195.6z
			 M181.8,35.2c0.9-1.1,1.4-2.5,1.4-4.5c0-1.9-0.5-3.4-1.4-4.4c-0.9-1-2.1-1.6-3.6-1.6s-2.7,0.5-3.6,1.6c-0.9,1-1.4,2.5-1.4,4.4
			c0,1.9,0.5,3.4,1.4,4.5c0.9,1.1,2.1,1.6,3.6,1.6S180.9,36.3,181.8,35.2z"/>
		<path class="st0" d="M202.1,11.2c-1.4-1.2-2.1-2.8-2.1-4.6c0-1.9,0.7-3.4,2.1-4.6c1.4-1.2,3.2-1.8,5.5-1.8c2.3,0,4.2,0.6,5.5,1.7
			c1.4,1.2,2.1,2.7,2.1,4.5c0,1.9-0.7,3.5-2.1,4.8c-1.4,1.3-3.2,1.9-5.5,1.9C205.3,13,203.5,12.4,202.1,11.2z M201.2,15.5h12.7v30.6
			h-12.7V15.5z"/>
		<path class="st0" d="M245.5,18.5c2.8,2.4,4.3,6.1,4.3,11.1v16.5H238v-4c-1.5,3.1-4.3,4.6-8.7,4.6c-2.4,0-4.5-0.4-6.2-1.3
			c-1.7-0.8-3-2-3.9-3.4c-0.9-1.4-1.3-3.1-1.3-4.8c0-3,1.2-5.3,3.5-6.9c2.3-1.6,5.8-2.4,10.5-2.4h5.1c-0.4-2.4-2.3-3.6-5.8-3.6
			c-1.4,0-2.8,0.2-4.2,0.6c-1.4,0.4-2.6,1-3.6,1.8l-4-8.3c1.8-1.1,3.9-1.9,6.4-2.5c2.5-0.6,5-0.9,7.4-0.9
			C238.6,14.9,242.7,16.1,245.5,18.5z M235.6,38.3c0.7-0.5,1.2-1.2,1.6-2.2V34H234c-2.6,0-3.9,0.9-3.9,2.6c0,0.7,0.3,1.3,0.8,1.8
			c0.5,0.5,1.3,0.7,2.2,0.7C234.1,39,234.9,38.8,235.6,38.3z"/>
		<path class="st0" d="M277.2,14.9v11.2c-1-0.1-1.9-0.2-2.8-0.2c-4.3,0-6.5,2.2-6.5,6.6v13.6h-12.7V15.5h12v3.3
			C269.6,16.2,272.9,14.9,277.2,14.9z"/>
		<path class="st0" d="M318,15.5l-12.6,31.2c-1.6,4-3.6,6.8-6,8.4c-2.4,1.6-5.3,2.4-8.8,2.4c-1.7,0-3.4-0.3-5.2-0.8s-3.1-1.2-4.1-2
			l4.2-8.7c0.6,0.5,1.4,0.9,2.2,1.2c0.8,0.3,1.6,0.4,2.3,0.4c1.4,0,2.4-0.4,3.1-1.2l-12.9-31h13l6.3,16.4l6.4-16.4H318z"/>
	</g>
</g>
</svg>
